<svg width="255" height="36" viewBox="0 0 255 36" fill="none" xmlns="http://www.w3.org/2000/svg">
<path d="M0.68 35V32.312L4.52 31.4V7.496L0.68 6.584V3.896H24.536V12.92H21.272L20.072 7.544H13.64L11.336 7.88V17.432H16.232L17.288 14.12H19.832V24.728H17.288L16.232 21.08H11.336V31.16C11.816 31.224 12.296 31.272 12.776 31.304C13.288 31.336 13.832 31.352 14.408 31.352H20.552L21.8 25.544H24.968V35H0.68ZM27.8986 35V32.36L31.6906 31.688V15.368L27.8986 14.6V11.816L36.2506 10.712L37.5466 13.064H37.7386C38.9866 12.264 40.2666 11.64 41.5786 11.192C42.8906 10.712 44.0426 10.472 45.0346 10.472C47.3066 10.472 49.0026 11.048 50.1226 12.2C51.2746 13.352 51.8506 15.08 51.8506 17.384V31.688L55.4026 32.36V35H42.3466V32.36L45.5146 31.688V18.488C45.5146 17.016 45.2586 16.04 44.7466 15.56C44.2666 15.048 43.2586 14.792 41.7226 14.792C41.2106 14.792 40.6506 14.824 40.0426 14.888C39.4666 14.92 38.7946 15.016 38.0266 15.176V31.688L41.1946 32.36V35H27.8986ZM56.8205 35V32.36L60.6125 31.688V15.368L56.8205 14.6V11.816L65.1725 10.712L66.4685 13.064H66.6605C67.9085 12.264 69.1885 11.64 70.5005 11.192C71.8125 10.712 72.9645 10.472 73.9565 10.472C76.2285 10.472 77.9245 11.048 79.0445 12.2C80.1965 13.352 80.7725 15.08 80.7725 17.384V31.688L84.3245 32.36V35H71.2685V32.36L74.4365 31.688V18.488C74.4365 17.016 74.1805 16.04 73.6685 15.56C73.1885 15.048 72.1805 14.792 70.6445 14.792C70.1325 14.792 69.5725 14.824 68.9645 14.888C68.3885 14.92 67.7165 15.016 66.9485 15.176V31.688L70.1165 32.36V35H56.8205ZM85.8384 35V32.36L89.6304 31.688V15.368L85.7424 14.6V11.816L94.1904 10.712L95.9664 11.384V31.688L99.3264 32.36V35H85.8384ZM91.8384 8.072C90.7824 8.072 89.9024 7.72 89.1984 7.016C88.4944 6.28 88.1424 5.352 88.1424 4.232C88.1424 3.144 88.5424 2.184 89.3424 1.352C90.1424 0.519998 91.1024 0.103997 92.2224 0.103997C93.2784 0.103997 94.1584 0.423998 94.8624 1.064C95.5984 1.704 95.9664 2.632 95.9664 3.848C95.9664 4.968 95.5824 5.96 94.8144 6.824C94.0784 7.656 93.0864 8.072 91.8384 8.072ZM112.643 35.576C110.275 35.576 108.227 35.208 106.499 34.472C104.803 33.704 103.475 32.44 102.515 30.68C101.555 28.92 101.075 26.552 101.075 23.576C101.075 20.824 101.555 18.488 102.515 16.568C103.507 14.616 104.851 13.128 106.547 12.104C108.275 11.08 110.243 10.568 112.451 10.568C114.339 10.568 115.891 10.872 117.107 11.48C118.355 12.056 119.315 12.824 119.987 13.784C120.691 14.744 121.171 15.784 121.427 16.904C121.715 18.024 121.859 19.128 121.859 20.216C121.859 21.88 121.683 22.968 121.331 23.48C120.979 23.992 120.419 24.248 119.651 24.248H107.891C107.923 25.752 108.131 27.048 108.515 28.136C108.899 29.192 109.539 29.992 110.435 30.536C111.363 31.08 112.627 31.352 114.227 31.352C116.179 31.352 117.667 31.176 118.691 30.824C119.715 30.472 120.275 30.264 120.371 30.2L121.331 32.216C121.203 32.344 120.771 32.68 120.035 33.224C119.299 33.768 118.307 34.296 117.059 34.808C115.843 35.32 114.371 35.576 112.643 35.576ZM107.891 21.128L115.187 20.744C115.283 20.168 115.331 19.64 115.331 19.16C115.331 17.592 115.123 16.44 114.707 15.704C114.323 14.936 113.475 14.552 112.163 14.552C111.043 14.552 110.179 14.84 109.571 15.416C108.963 15.992 108.531 16.776 108.275 17.768C108.051 18.76 107.923 19.88 107.891 21.128ZM124.077 35V32.36L127.869 31.688V6.104L123.981 5.336V2.552L132.429 1.448L134.205 2.12V31.688L137.565 32.36V35H124.077ZM151.127 35.576C148.759 35.576 146.711 35.208 144.983 34.472C143.287 33.704 141.959 32.44 140.999 30.68C140.039 28.92 139.559 26.552 139.559 23.576C139.559 20.824 140.039 18.488 140.999 16.568C141.991 14.616 143.335 13.128 145.031 12.104C146.759 11.08 148.727 10.568 150.935 10.568C152.823 10.568 154.375 10.872 155.591 11.48C156.839 12.056 157.799 12.824 158.471 13.784C159.175 14.744 159.655 15.784 159.911 16.904C160.199 18.024 160.343 19.128 160.343 20.216C160.343 21.88 160.167 22.968 159.815 23.48C159.463 23.992 158.903 24.248 158.135 24.248H146.375C146.407 25.752 146.615 27.048 146.999 28.136C147.383 29.192 148.023 29.992 148.919 30.536C149.847 31.08 151.111 31.352 152.711 31.352C154.663 31.352 156.151 31.176 157.175 30.824C158.199 30.472 158.759 30.264 158.855 30.2L159.815 32.216C159.687 32.344 159.255 32.68 158.519 33.224C157.783 33.768 156.791 34.296 155.543 34.808C154.327 35.32 152.855 35.576 151.127 35.576ZM146.375 21.128L153.671 20.744C153.767 20.168 153.815 19.64 153.815 19.16C153.815 17.592 153.607 16.44 153.191 15.704C152.807 14.936 151.959 14.552 150.647 14.552C149.527 14.552 148.663 14.84 148.055 15.416C147.447 15.992 147.015 16.776 146.759 17.768C146.535 18.76 146.407 19.88 146.375 21.128ZM171.868 35V32.312L175.708 31.4V7.496L171.868 6.584V3.896H186.364V6.584L182.523 7.496V31.016L184.972 31.352H190.588L191.884 25.976H195.052V35H171.868ZM196.417 35V32.36L200.209 31.688V15.368L196.321 14.6V11.816L204.769 10.712L206.545 11.384V31.688L209.905 32.36V35H196.417ZM202.417 8.072C201.361 8.072 200.481 7.72 199.777 7.016C199.073 6.28 198.721 5.352 198.721 4.232C198.721 3.144 199.121 2.184 199.921 1.352C200.721 0.519998 201.681 0.103997 202.801 0.103997C203.857 0.103997 204.737 0.423998 205.441 1.064C206.177 1.704 206.545 2.632 206.545 3.848C206.545 4.968 206.161 5.96 205.393 6.824C204.657 7.656 203.665 8.072 202.417 8.072ZM211.557 35V32.36L215.349 31.688V15.608L211.557 14.84V12.056L219.909 10.664L221.541 13.64C221.957 13.256 222.485 12.824 223.125 12.344C223.797 11.864 224.485 11.448 225.189 11.096C225.925 10.744 226.565 10.568 227.109 10.568C227.909 10.568 228.549 10.776 229.029 11.192C229.509 11.576 229.749 12.28 229.749 13.304C229.749 13.912 229.605 14.552 229.317 15.224C229.029 15.896 228.645 16.456 228.165 16.904L224.661 15.848C224.309 15.72 223.989 15.64 223.701 15.608C223.445 15.544 223.205 15.512 222.981 15.512C222.725 15.512 222.485 15.544 222.261 15.608C222.069 15.672 221.877 15.736 221.685 15.8V31.544L226.965 32.312V35H211.557ZM238.498 35.576C236.834 35.576 235.474 35.288 234.418 34.712C233.394 34.104 232.642 33.336 232.162 32.408C231.714 31.448 231.49 30.424 231.49 29.336C231.49 27.864 231.858 26.664 232.594 25.736C233.33 24.776 234.306 24.008 235.522 23.432C236.738 22.856 238.066 22.456 239.506 22.232L244.642 21.368V18.2C244.642 17.528 244.546 16.92 244.354 16.376C244.194 15.8 243.858 15.352 243.346 15.032C242.834 14.712 242.082 14.552 241.09 14.552C240.45 14.552 239.954 14.584 239.602 14.648C239.282 14.712 239.042 14.776 238.882 14.84L238.21 19.16C238.146 19.192 237.874 19.288 237.394 19.448C236.946 19.576 236.37 19.64 235.666 19.64C234.642 19.64 233.826 19.448 233.218 19.064C232.642 18.648 232.354 17.896 232.354 16.808C232.354 15.752 232.706 14.84 233.41 14.072C234.114 13.272 234.994 12.616 236.05 12.104C237.138 11.56 238.274 11.176 239.458 10.952C240.642 10.696 241.714 10.568 242.674 10.568C244.402 10.568 245.874 10.776 247.09 11.192C248.338 11.608 249.298 12.296 249.97 13.256C250.642 14.184 250.978 15.464 250.978 17.096V31.112L254.482 31.784V34.232C254.386 34.264 254.082 34.376 253.57 34.568C253.058 34.76 252.402 34.92 251.602 35.048C250.834 35.208 250.018 35.288 249.154 35.288C247.81 35.288 246.866 35.096 246.322 34.712C245.778 34.296 245.394 33.736 245.17 33.032H244.834C244.546 33.288 244.098 33.624 243.49 34.04C242.914 34.456 242.194 34.808 241.33 35.096C240.498 35.416 239.554 35.576 238.498 35.576ZM241.57 31.4C242.274 31.4 242.882 31.32 243.394 31.16C243.906 30.968 244.322 30.792 244.642 30.632V24.728C242.818 24.856 241.442 25.112 240.514 25.496C239.618 25.848 239.01 26.28 238.69 26.792C238.37 27.304 238.21 27.864 238.21 28.472C238.21 30.424 239.33 31.4 241.57 31.4Z" fill="#708D86"/>
</svg>
