<svg width="161" height="31" viewBox="0 0 161 31" fill="none" xmlns="http://www.w3.org/2000/svg">
<path d="M11.42 26.468C7.892 26.468 5.216 25.436 3.392 23.372C1.568 21.284 0.656 18.404 0.656 14.732C0.656 12.404 1.088 10.304 1.952 8.432C2.84 6.56 4.136 5.06 5.84 3.932C7.544 2.804 9.668 2.24 12.212 2.24C14.372 2.24 16.208 2.708 17.72 3.644C19.256 4.58 20.432 5.912 21.248 7.64C22.064 9.344 22.472 11.408 22.472 13.832C22.472 15.56 22.256 17.192 21.824 18.728C21.416 20.24 20.768 21.584 19.88 22.76C18.992 23.912 17.852 24.824 16.46 25.496C15.068 26.144 13.388 26.468 11.42 26.468ZM12.14 24.416C13.748 24.416 15.032 24.044 15.992 23.3C16.976 22.532 17.696 21.416 18.152 19.952C18.608 18.464 18.836 16.652 18.836 14.516C18.836 12.404 18.656 10.688 18.296 9.368C17.96 8.024 17.468 6.992 16.82 6.272C16.172 5.552 15.416 5.06 14.552 4.796C13.688 4.532 12.74 4.4 11.708 4.4C10.94 4.4 10.196 4.46 9.476 4.58C8.756 4.676 8.072 4.904 7.424 5.264C6.8 5.624 6.248 6.176 5.768 6.92C5.312 7.664 4.94 8.648 4.652 9.872C4.388 11.096 4.256 12.644 4.256 14.516C4.256 16.916 4.556 18.848 5.156 20.312C5.78 21.752 6.668 22.796 7.82 23.444C8.996 24.092 10.436 24.416 12.14 24.416ZM24.7504 26V24.524L27.6304 24.02V3.608L24.7504 3.104V1.628L29.7544 0.835998L30.5824 1.16V24.02L33.3904 24.524V26H24.7504ZM40.6337 26.252C39.4097 26.252 38.4257 26.048 37.6817 25.64C36.9617 25.232 36.4337 24.692 36.0977 24.02C35.7857 23.324 35.6297 22.58 35.6297 21.788C35.6297 20.78 35.8577 19.904 36.3137 19.16C36.7937 18.416 37.5137 17.804 38.4737 17.324C39.4337 16.844 40.6337 16.52 42.0737 16.352L45.3137 15.884V13.184C45.3137 12.488 45.1697 11.912 44.8817 11.456C44.6177 11 44.2217 10.676 43.6937 10.484C43.1897 10.268 42.5537 10.16 41.7857 10.16C41.1857 10.16 40.6817 10.208 40.2737 10.304C39.8657 10.376 39.6257 10.424 39.5537 10.448L39.0137 13.76C38.9897 13.784 38.8937 13.832 38.7257 13.904C38.5577 13.976 38.2697 14.012 37.8617 14.012C37.4537 14.012 37.0697 13.868 36.7097 13.58C36.3737 13.268 36.2057 12.86 36.2057 12.356C36.2057 11.612 36.4817 10.952 37.0337 10.376C37.6097 9.8 38.3057 9.332 39.1217 8.972C39.9377 8.588 40.7537 8.312 41.5697 8.144C42.3857 7.952 43.0457 7.856 43.5497 7.856C44.5817 7.856 45.4457 8.048 46.1417 8.432C46.8377 8.792 47.3657 9.284 47.7257 9.908C48.0857 10.532 48.2657 11.228 48.2657 11.996V23.552L50.8217 24.056V25.424C50.7497 25.448 50.5577 25.52 50.2457 25.64C49.9577 25.76 49.5617 25.88 49.0577 26C48.5777 26.096 48.0137 26.144 47.3657 26.144C46.6937 26.144 46.2257 25.964 45.9617 25.604C45.7217 25.244 45.5777 24.872 45.5297 24.488H45.3857C45.0257 24.776 44.5937 25.052 44.0897 25.316C43.6097 25.58 43.0817 25.808 42.5057 26C41.9297 26.168 41.3057 26.252 40.6337 26.252ZM42.0737 23.984C42.9857 23.984 43.7537 23.876 44.3777 23.66C45.0017 23.42 45.3137 23.3 45.3137 23.3V17.612C43.8257 17.708 42.6017 17.9 41.6417 18.188C40.6817 18.476 39.9617 18.872 39.4817 19.376C39.0257 19.856 38.7977 20.48 38.7977 21.248C38.7977 23.072 39.8897 23.984 42.0737 23.984ZM40.3097 6.74L39.3017 5.66L43.2257 1.304C43.5137 0.967998 43.7777 0.703999 44.0177 0.512C44.2577 0.296 44.4977 0.188 44.7377 0.188C45.0257 0.188 45.3377 0.368 45.6737 0.727999C46.0337 1.088 46.3337 1.652 46.5737 2.42L40.3097 6.74ZM67.4768 26.324C65.7008 26.324 64.2368 25.952 63.0848 25.208C61.9328 24.44 61.0808 23.396 60.5288 22.076C59.9768 20.756 59.7008 19.268 59.7008 17.612C59.7008 15.644 60.0368 13.928 60.7088 12.464C61.4048 11 62.3528 9.872 63.5528 9.08C64.7768 8.264 66.1808 7.856 67.7648 7.856C68.8208 7.856 69.7208 8.036 70.4648 8.396C71.2088 8.756 71.8088 9.248 72.2648 9.872C72.7448 10.496 73.0928 11.204 73.3088 11.996C73.5488 12.764 73.6688 13.568 73.6688 14.408C73.6688 15.704 73.5488 16.568 73.3088 17C73.0688 17.408 72.6128 17.612 71.9408 17.612H62.9048C62.9048 18.74 63.0848 19.772 63.4448 20.708C63.8048 21.644 64.3928 22.4 65.2088 22.976C66.0488 23.528 67.1648 23.804 68.5568 23.804C69.8768 23.804 70.8968 23.672 71.6168 23.408C72.3608 23.144 72.7808 22.988 72.8768 22.94L73.3808 23.948C73.3088 24.02 73.0208 24.248 72.5168 24.632C72.0368 25.016 71.3648 25.4 70.5008 25.784C69.6608 26.144 68.6528 26.324 67.4768 26.324ZM62.9408 15.956L70.6448 15.668C70.7168 15.236 70.7528 14.756 70.7528 14.228C70.7528 12.86 70.5128 11.804 70.0328 11.06C69.5528 10.316 68.6288 9.944 67.2608 9.944C66.2768 9.944 65.4608 10.184 64.8128 10.664C64.1888 11.12 63.7208 11.804 63.4088 12.716C63.1208 13.604 62.9648 14.684 62.9408 15.956ZM83.575 26.324C81.871 26.324 80.563 25.904 79.651 25.064C78.739 24.2 78.283 22.964 78.283 21.356V10.736L75.295 10.232V8.864L80.227 7.856L81.235 8.36V19.808C81.235 21.368 81.511 22.46 82.063 23.084C82.615 23.684 83.647 23.984 85.159 23.984C85.663 23.984 86.239 23.888 86.887 23.696C87.559 23.48 88.147 23.228 88.651 22.94V10.736L85.699 10.232V8.864L90.631 7.856L91.639 8.36V23.444L94.195 24.02V25.388L89.263 26.108L88.687 24.308L88.615 24.344C88.063 24.92 87.319 25.4 86.383 25.784C85.471 26.144 84.535 26.324 83.575 26.324ZM109.776 26.324C108.912 26.324 108.084 26.24 107.292 26.072C106.524 25.904 105.852 25.712 105.276 25.496C104.7 25.28 104.304 25.088 104.088 24.92L104.484 20.528H105.996L106.5 23.372C106.812 23.588 107.256 23.804 107.832 24.02C108.432 24.236 109.14 24.344 109.956 24.344C111.444 24.344 112.428 24.056 112.908 23.48C113.412 22.904 113.664 22.16 113.664 21.248C113.664 20.528 113.472 19.976 113.088 19.592C112.704 19.184 112.2 18.872 111.576 18.656C110.952 18.416 110.292 18.2 109.596 18.008C108.924 17.84 108.276 17.648 107.652 17.432C107.028 17.216 106.452 16.94 105.924 16.604C105.396 16.244 104.976 15.776 104.664 15.2C104.352 14.6 104.196 13.844 104.196 12.932C104.196 11.78 104.484 10.832 105.06 10.088C105.636 9.344 106.428 8.792 107.436 8.432C108.444 8.048 109.548 7.856 110.748 7.856C111.516 7.856 112.248 7.916 112.944 8.036C113.64 8.132 114.252 8.264 114.78 8.432C115.308 8.576 115.68 8.708 115.896 8.828L115.392 13.328H113.916L113.412 10.448C113.268 10.376 112.896 10.268 112.296 10.124C111.72 9.98 111.108 9.908 110.46 9.908C109.116 9.908 108.18 10.124 107.652 10.556C107.148 10.964 106.896 11.624 106.896 12.536C106.896 13.088 107.064 13.532 107.4 13.868C107.76 14.204 108.228 14.48 108.804 14.696C109.404 14.912 110.052 15.116 110.748 15.308C111.396 15.5 112.056 15.728 112.728 15.992C113.4 16.232 114.012 16.544 114.564 16.928C115.14 17.312 115.596 17.816 115.932 18.44C116.268 19.04 116.436 19.808 116.436 20.744C116.436 22.136 116.124 23.24 115.5 24.056C114.876 24.872 114.048 25.46 113.016 25.82C112.008 26.156 110.928 26.324 109.776 26.324ZM125.937 26.324C124.257 26.324 122.853 25.964 121.725 25.244C120.597 24.524 119.745 23.492 119.169 22.148C118.617 20.804 118.341 19.208 118.341 17.36C118.341 16.064 118.521 14.852 118.881 13.724C119.265 12.572 119.805 11.564 120.501 10.7C121.221 9.812 122.085 9.116 123.093 8.612C124.125 8.108 125.277 7.856 126.549 7.856C128.277 7.856 129.717 8.216 130.869 8.936C132.021 9.632 132.873 10.628 133.425 11.924C134.001 13.22 134.289 14.756 134.289 16.532C134.289 17.924 134.109 19.22 133.749 20.42C133.413 21.596 132.897 22.628 132.201 23.516C131.505 24.404 130.629 25.1 129.573 25.604C128.541 26.084 127.329 26.324 125.937 26.324ZM126.621 24.236C127.773 24.236 128.673 23.96 129.321 23.408C129.969 22.832 130.425 22.016 130.689 20.96C130.953 19.904 131.085 18.644 131.085 17.18C131.085 15.5 130.941 14.132 130.653 13.076C130.365 11.996 129.885 11.204 129.213 10.7C128.541 10.196 127.593 9.944 126.369 9.944C125.025 9.944 124.005 10.22 123.309 10.772C122.613 11.3 122.145 12.104 121.905 13.184C121.689 14.24 121.581 15.572 121.581 17.18C121.581 18.668 121.725 19.94 122.013 20.996C122.301 22.052 122.805 22.856 123.525 23.408C124.269 23.96 125.301 24.236 126.621 24.236ZM143.868 26.324C142.164 26.324 140.856 25.904 139.944 25.064C139.032 24.2 138.576 22.964 138.576 21.356V10.736L135.588 10.232V8.864L140.52 7.856L141.528 8.36V19.808C141.528 21.368 141.804 22.46 142.356 23.084C142.908 23.684 143.94 23.984 145.452 23.984C145.956 23.984 146.532 23.888 147.18 23.696C147.852 23.48 148.44 23.228 148.944 22.94V10.736L145.992 10.232V8.864L150.924 7.856L151.932 8.36V23.444L154.488 24.02V25.388L149.556 26.108L148.98 24.308L148.908 24.344C148.356 24.92 147.612 25.4 146.676 25.784C145.764 26.144 144.828 26.324 143.868 26.324ZM157.391 30.644L156.167 30.14C156.623 29.396 156.971 28.652 157.211 27.908C157.475 27.188 157.607 26.588 157.607 26.108C157.607 25.604 157.487 25.16 157.247 24.776C157.007 24.392 156.743 24.092 156.455 23.876C156.695 23.372 157.007 22.952 157.391 22.616C157.775 22.256 158.255 22.076 158.831 22.076C159.479 22.076 159.983 22.304 160.343 22.76C160.703 23.192 160.883 23.72 160.883 24.344C160.883 24.944 160.727 25.58 160.415 26.252C160.127 26.924 159.779 27.56 159.371 28.16C158.963 28.76 158.567 29.276 158.183 29.708C157.823 30.164 157.559 30.476 157.391 30.644Z" fill="#FFFDFD"/>
</svg>
